<?xml version="1.0" encoding="UTF-8" standalone="no"?>
<!-- Created with Inkscape (http://www.inkscape.org/) -->

<svg
   width="1900"
   height="280"
   viewBox="0 0 502.70832 74.08333"
   version="1.1"
   id="svg1"
   xmlns="http://www.w3.org/2000/svg"
   xmlns:svg="http://www.w3.org/2000/svg">
  <defs
     id="defs1" />
  <g
     id="layer1">
    <path
       style="font-weight:bold;font-size:63.5px;font-family:'IBM Plex Mono';-inkscape-font-specification:'IBM Plex Mono Bold';stroke-width:0.264583"
       d="m 22.976221,55.297873 q -5.588,0 -9.7155,-1.8415 -4.1274999,-1.8415 -6.6674999,-5.0165 l 5.5244999,-6.096 q 2.413,2.667 5.2705,3.937 2.921,1.27 5.9055,1.27 3.429,0 5.207,-1.524 1.778,-1.524 1.778,-4.3815 0,-2.3495 -1.397,-3.556 -1.3335,-1.2065 -4.572,-1.7145 l -4.6355,-0.762 q -5.969,-1.016 -8.636,-4.3815 -2.6669999,-3.429 -2.6669999,-8.3185 0,-6.4135 4.1909999,-9.906 4.191,-3.5559996 11.7475,-3.5559996 5.1435,0 8.9535,1.5874996 3.81,1.5875 6.1595,4.318 l -5.3975,6.0325 q -1.778,-1.9685 -4.191,-3.048 -2.413,-1.143 -5.461,-1.143 -6.4135,0 -6.4135,5.2705 0,2.286 1.397,3.429 1.4605,1.143 4.699,1.7145 l 4.6355,0.8255 q 5.3975,0.9525 8.3185,4.064 2.921,3.1115 2.921,8.382 0,3.1115 -1.0795,5.7785 -1.0795,2.6035 -3.2385,4.572 -2.159,1.905 -5.334,2.9845 -3.1115,1.0795 -7.3025,1.0795 z m 47.053525,-33.528 h 9.5885 l -15.4305,38.0365 q -1.4605,3.6195 -3.8735,5.5245 -2.413,1.905 -6.604,1.905 h -6.477 v -7.3025 h 7.874 l 2.032,-5.588 -13.208,-32.5755 h 10.0965 l 4.7625,13.7795 2.9845,9.525 h 0.508 l 2.8575,-9.525 z m 12.700025,32.766 v -32.766 h 7.5565 v 4.826 h 0.4445 q 0.762,-2.286 2.159,-3.937 1.4605,-1.651 4.064,-1.651 4.762499,0 5.841999,5.588 h 0.381 q 0.381,-1.143 0.9525,-2.159 0.5715,-1.016 1.397,-1.778 0.8255,-0.762 1.9685,-1.2065 1.143,-0.4445 2.667,-0.4445 6.858,0 6.858,10.0965 v 23.4315 h -7.5565 v -22.479 q 0,-2.286 -0.8255,-3.175 -0.762,-0.9525 -2.032,-0.9525 -1.2065,0 -2.0955,0.8255 -0.8255,0.762 -0.8255,2.413 v 23.368 h -7.619999 v -22.479 q 0,-2.286 -0.762,-3.175 -0.6985,-0.9525 -1.9685,-0.9525 -1.27,0 -2.159,0.8255 -0.889,0.762 -0.889,2.413 v 23.368 z M 122.6713,7.5458734 h 9.398 V 27.738873 h 0.4445 q 1.2065,-2.921 3.4925,-4.826 2.286,-1.905 6.223,-1.905 2.7305,0 4.953,1.016 2.286,1.016 3.8735,3.1115 1.651,2.0955 2.54,5.334 0.9525,3.2385 0.9525,7.6835 0,4.445 -0.9525,7.6835 -0.889,3.2385 -2.54,5.334 -1.5875,2.0955 -3.8735,3.1115 -2.2225,1.016 -4.953,1.016 -3.937,0 -6.223,-1.8415 -2.286,-1.905 -3.4925,-4.8895 h -0.4445 v 5.969 h -9.398 z m 15.494,40.4494996 q 3.175,0 4.8895,-1.905 1.7145,-1.9685 1.7145,-5.3975 v -5.08 q 0,-3.429 -1.7145,-5.334 -1.7145,-1.9685 -4.8895,-1.9685 -2.4765,0 -4.318,1.2065 -1.778,1.2065 -1.778,3.81 v 9.652 q 0,2.6035 1.778,3.81 1.8415,1.2065 4.318,1.2065 z m 37.90952,7.3025 q -3.81,0 -6.858,-1.143 -3.048,-1.2065 -5.207,-3.429 -2.0955,-2.2225 -3.2385,-5.3975 -1.143,-3.175 -1.143,-7.1755 0,-4.0005 1.143,-7.1755 1.143,-3.175 3.2385,-5.3975 2.159,-2.2225 5.207,-3.3655 3.048,-1.2065 6.858,-1.2065 3.81,0 6.858,1.2065 3.048,1.143 5.1435,3.3655 2.159,2.2225 3.302,5.3975 1.143,3.175 1.143,7.1755 0,4.0005 -1.143,7.1755 -1.143,3.175 -3.302,5.3975 -2.0955,2.2225 -5.1435,3.429 -3.048,1.143 -6.858,1.143 z m 0,-6.985 q 3.175,0 4.953,-1.9685 1.778,-1.9685 1.778,-5.588 v -5.207 q 0,-3.6195 -1.778,-5.588 -1.778,-1.9685 -4.953,-1.9685 -3.175,0 -4.953,1.9685 -1.778,1.9685 -1.778,5.588 v 5.207 q 0,3.6195 1.778,5.588 1.778,1.9685 4.953,1.9685 z m 23.36802,-1.0795 h 10.033 v -32.385 h -10.033 V 7.5458734 h 19.431 V 47.233373 h 10.033 v 7.3025 h -29.464 z m 54.86404,-29.6545 q -3.175,0 -4.445,-1.27 -1.2065,-1.3335 -1.2065,-3.175 v -1.8415 q 0,-1.9049996 1.2065,-3.1749996 1.27,-1.27 4.445,-1.27 3.175,0 4.3815,1.27 1.27,1.27 1.27,3.1749996 v 1.8415 q 0,1.8415 -1.27,3.175 -1.2065,1.27 -4.3815,1.27 z m -15.113,29.6545 h 10.414 v -18.161 h -10.414 v -7.3025 h 19.812 v 25.4635 h 9.652 v 7.3025 h -29.464 z m 52.51451,8.0645 q -3.8735,0 -6.985,-1.143 -3.048,-1.2065 -5.207,-3.429 -2.0955,-2.2225 -3.2385,-5.3975 -1.143,-3.175 -1.143,-7.1755 0,-4.0005 1.143,-7.1755 1.143,-3.175 3.2385,-5.3975 2.159,-2.2225 5.207,-3.3655 3.1115,-1.2065 6.9215,-1.2065 5.3975,0 8.636,2.2225 3.302,2.159 5.0165,5.7785 l -7.239,3.937 q -0.889,-1.905 -2.3495,-3.175 -1.397,-1.27 -4.064,-1.27 -3.2385,0 -5.0165,1.905 -1.7145,1.8415 -1.7145,5.08 v 5.334 q 0,3.2385 1.7145,5.1435 1.778,1.8415 5.1435,1.8415 2.7305,0 4.2545,-1.27 1.5875,-1.27 2.667,-3.302 l 7.112,4.064 q -1.778,3.6195 -5.207,5.842 -3.3655,2.159 -8.89,2.159 z m 21.78053,-45.085 h 14.2875 q 8.9535,0 13.2715,5.715 4.318,5.715 4.318,16.4465 0,10.7315 -4.318,16.4465 -4.318,5.715 -13.2715,5.715 h -14.2875 z m 13.6525,36.83 q 4.2545,0 6.223,-2.7305 1.9685,-2.7305 1.9685,-7.9375 v -8.0645 q 0,-5.1435 -1.9685,-7.874 -1.9685,-2.7305 -6.223,-2.7305 h -4.2545 v 29.337 z m 38.73504,8.255 q -5.588,0 -9.7155,-1.8415 -4.1275,-1.8415 -6.6675,-5.0165 l 5.5245,-6.096 q 2.413,2.667 5.2705,3.937 2.921,1.27 5.9055,1.27 3.429,0 5.207,-1.524 1.778,-1.524 1.778,-4.3815 0,-2.3495 -1.397,-3.556 -1.3335,-1.2065 -4.572,-1.7145 l -4.6355,-0.762 q -5.969,-1.016 -8.636,-4.3815 -2.667,-3.429 -2.667,-8.3185 0,-6.4135 4.191,-9.906 4.191,-3.5559996 11.7475,-3.5559996 5.1435,0 8.9535,1.5874996 3.81,1.5875 6.1595,4.318 l -5.3975,6.0325 q -1.778,-1.9685 -4.191,-3.048 -2.413,-1.143 -5.461,-1.143 -6.4135,0 -6.4135,5.2705 0,2.286 1.397,3.429 1.4605,1.143 4.699,1.7145 l 4.6355,0.8255 q 5.3975,0.9525 8.3185,4.064 2.921,3.1115 2.921,8.382 0,3.1115 -1.0795,5.7785 -1.0795,2.6035 -3.2385,4.572 -2.159,1.905 -5.334,2.9845 -3.1115,1.0795 -7.3025,1.0795 z m 45.84701,-7.0485 h -0.5715 q -0.5715,1.397 -1.397,2.667 -0.8255,1.27 -2.032,2.286 -1.2065,0.9525 -2.8575,1.524 -1.5875,0.5715 -3.6195,0.5715 -3.2385,0 -5.7785,-1.524 -2.4765,-1.524 -4.191,-4.445 -1.7145,-2.921 -2.6035,-7.112 -0.8255,-4.191 -0.8255,-9.4615 0,-11.303 4.1275,-17.272 4.1275,-6.0324996 12.7635,-6.0324996 3.429,0 6.0325,0.9524996 2.6035,0.889 4.445,2.6035 1.905,1.651 3.1115,4.0005 1.2065,2.3495 1.905,5.207 l -8.89,2.159 q -0.381,-1.397 -0.889,-2.667 -0.4445,-1.3335 -1.2065,-2.3495 -0.762,-1.016 -1.905,-1.5875 -1.143,-0.635 -2.794,-0.635 -3.6195,0 -5.1435,2.9845 -1.4605,2.9845 -1.4605,8.382 v 7.239 q 0,5.3975 1.5875,8.636 1.651,3.2385 5.7785,3.2385 3.2385,0 4.826,-1.905 1.5875,-1.905 1.5875,-4.8895 v -3.2385 h -7.5565 v -6.731 h 16.0655 v 23.6855 h -8.509 z m 17.08153,6.2865 v -44.323 h 28.321 v 7.8105 H 438.33 v 10.16 h 18.161 v 7.8105 H 438.33 v 10.7315 h 18.796 v 7.8105 z m 36.83004,12.192 v -7.6835 h 30.48 v 7.6835 z"
       id="text1"
       aria-label="SymbolicDSGE_" />
  </g>
</svg>
